<?xml version="1.0" encoding="utf-8"?>
<!-- Generator: Adobe Illustrator 24.3.0, SVG Export Plug-In . SVG Version: 6.00 Build 0)  -->
<svg version="1.1" id="Lager_1" xmlns="http://www.w3.org/2000/svg" xmlns:xlink="http://www.w3.org/1999/xlink" x="0px" y="0px"
	 viewBox="0 0 141.2 32.9" style="enable-background:new 0 0 141.2 32.9;" xml:space="preserve">
<style type="text/css">
	.st0{fill:#FA7864;}
</style>
<path class="st0" d="M21.5,23.3l3,1.6v0H14l0,0l3-1.6c0.3-0.1,0.5-0.4,0.5-0.7v-9.3c-3.4,1.4-7.1,1.4-10.5,0v9.3
	c0,0.1,0,0.3,0.1,0.4c0.1,0.1,0.2,0.2,0.4,0.3l3,1.6v0H0l0,0l3-1.6c0.3-0.1,0.5-0.4,0.5-0.7V3.1c0-0.3-0.2-0.6-0.5-0.7L0,0.8V0.7
	h10.5v0.1l-3,1.6C7.3,2.5,7.2,2.6,7.1,2.7C7,2.8,7,2.9,7,3.1v9.5c3.3,1.4,7.1,1.4,10.4,0V3.1c0-0.3-0.1-0.6-0.4-0.7l-3-1.6V0.7h10.5
	v0.1l-3,1.6c-0.1,0.1-0.3,0.2-0.4,0.3C21,2.8,21,2.9,21,3.1v19.6c0,0.1,0,0.3,0.1,0.4C21.2,23.2,21.3,23.3,21.5,23.3z M37.6,24.8
	c-0.5,0.4-1.1,0.6-1.7,0.5c-0.8,0-1.5-0.3-2-0.9c-0.6-0.8-0.8-1.8-0.8-2.7c-0.3,1.1-0.9,2-1.8,2.7c-1.8,1.4-4.4,1.3-6.1-0.2
	c-0.9-0.9-1.4-2.1-1.3-3.3c-0.1-1.4,0.6-2.8,1.7-3.7c1.1-0.9,2.5-1.4,3.9-1.3c1.3,0,2.6,0.3,3.6,1.1l0.1-3.7V13
	c0.1-1.2-0.3-2.3-0.9-3.3c-0.7-0.8-1.7-1.3-2.8-1.2c-0.3,0-0.6,0-0.8,0.1c-0.2,0.1-0.3,0.2-0.3,0.4l-2.1,4.6h-0.1L24.7,9
	c1.8-0.7,3.8-1.1,5.8-1.1c2,0,3.5,0.5,4.4,1.3c1,1.1,1.5,3,1.5,5.7v0.5l-0.1,5.6c0,1.5,0.4,2.3,1.2,2.3c0.6,0,1-0.3,1.2-1h0.1
	c0,0.4-0.1,0.7-0.2,1.1C38.4,24,38.1,24.4,37.6,24.8z M33.2,17c-0.6-0.2-1.3-0.3-2-0.4c-1-0.1-2.1,0.3-2.8,1.1c-0.7,0.7-1,1.7-1,2.6
	c0,0.8,0.2,1.6,0.7,2.2c0.5,0.5,1.2,0.8,1.9,0.8c1.3,0,2.5-0.8,3.1-2v-0.1L33.2,17z M54.4,16.1c0.1,2.4-0.5,4.7-1.8,6.7
	c-1.1,1.6-2.8,2.5-4.8,2.5c-1.9,0.1-3.8-0.9-4.6-2.7v8c0,0.3,0.2,0.6,0.5,0.7l3.1,1.6V33h-9.6v-0.1l2.4-1.4c0.3-0.2,0.4-0.5,0.4-0.8
	v-20c0-0.3-0.1-0.6-0.4-0.8l-2.4-1.7V8.2h6V12c0.4-1.2,1.2-2.3,2.2-3.1c0.9-0.7,1.9-1,3-1c1.7-0.1,3.4,0.8,4.3,2.3
	C53.9,11.9,54.5,14,54.4,16.1L54.4,16.1z M50.8,16.3c0.1-1.7-0.3-3.3-1-4.9c-0.5-1.1-1.6-1.8-2.8-1.9c-1.5,0-2.7,0.9-3.7,2.7v9.9
	c0.8,1.1,2,1.7,3.4,1.6c1.3,0,2.5-0.7,3.1-1.9C50.6,20.2,51,18.3,50.8,16.3L50.8,16.3z M70.4,16.1c0.1,2.4-0.5,4.7-1.8,6.7
	c-1.1,1.6-2.8,2.5-4.8,2.5c-1.9,0.1-3.8-0.9-4.6-2.7v8c0,0.3,0.2,0.6,0.5,0.7l3.1,1.6V33h-9.6v-0.1l2.4-1.4c0.3-0.2,0.4-0.5,0.4-0.8
	v-20c0-0.3-0.1-0.6-0.4-0.8l-2.4-1.7V8.2h6V12c0.4-1.2,1.2-2.3,2.2-3.1c0.9-0.7,1.9-1,3-1c1.7-0.1,3.4,0.8,4.3,2.3
	C69.9,11.9,70.5,14,70.4,16.1L70.4,16.1z M66.8,16.3c0.1-1.7-0.3-3.3-1-4.9c-0.5-1.1-1.6-1.8-2.8-1.9c-1.5,0-2.7,0.9-3.7,2.7v9.9
	c0.8,1.1,2,1.7,3.4,1.6c1.3,0,2.5-0.7,3.1-1.9C66.6,20.2,67,18.3,66.8,16.3L66.8,16.3z M75.6,22.8V8.2h-6v0.1l2.3,1.8
	c0.2,0.2,0.4,0.5,0.4,0.8v12c0,0.3-0.1,0.6-0.4,0.8L69.6,25l0,0h8.8l0,0L76,23.5C75.7,23.4,75.6,23.1,75.6,22.8L75.6,22.8z
	 M73.7,5.6c0.5,0,1.1-0.2,1.5-0.6c0.4-0.4,0.6-0.9,0.6-1.4c0-0.6-0.2-1.2-0.6-1.6c-0.4-0.4-0.9-0.6-1.5-0.6c-0.6,0-1.1,0.2-1.5,0.6
	c-0.4,0.4-0.6,0.9-0.6,1.5c0,0.6,0.2,1.1,0.6,1.5C72.6,5.4,73.1,5.6,73.7,5.6z M91.9,23.2l2.3,1.8l0,0h-6v-3.5
	c-0.4,1.1-1.1,2.2-2,2.9c-0.9,0.6-1.9,1-3,1c-1.8,0-3.5-0.9-4.4-2.4c-1.2-1.8-1.8-4-1.7-6.2c-0.1-2.3,0.5-4.6,1.9-6.4
	c1.1-1.5,2.9-2.4,4.8-2.4c2-0.1,3.9,1.2,4.5,3.2V2.9c0-0.3-0.1-0.6-0.4-0.8l-2.4-1.4V0.7l6-0.7v22.5C91.5,22.8,91.7,23.1,91.9,23.2z
	 M88.2,11.4c-0.7-1.2-2-2-3.4-2.1c-1.3,0-2.4,0.7-3,1.8c-0.9,1.6-1.3,3.4-1.2,5.3c-0.1,1.9,0.3,3.8,1.2,5.4c0.6,1.1,1.7,1.8,3,1.8
	c1.2,0,2.4-0.8,3.4-2.4L88.2,11.4z M106.8,19.1c-0.2,1.8-1,3.4-2.3,4.6c-1.2,1.1-2.8,1.6-4.4,1.6c-1.9,0-3.8-0.7-5.1-2.2
	c-1.4-1.4-2.1-3.6-2.1-6.4c0-1.4,0.2-2.8,0.7-4.1c0.4-1.1,1-2,1.8-2.8c0.7-0.6,1.5-1.1,2.3-1.5c0.8-0.3,1.7-0.5,2.6-0.5
	c1.7,0,3.3,0.5,4.6,1.6c1.3,1.2,2,3,1.9,4.8c0,0.2,0,0.5-0.1,0.9H96.2v1c-0.1,1.9,0.4,3.7,1.4,5.3c0.8,1.2,2.2,1.9,3.6,1.9
	C103.8,23.4,105.6,22,106.8,19.1L106.8,19.1z M96.3,14.6h7.1v-0.1c0-4.1-1.1-6.1-3.2-6.1c-1.1,0-2.2,0.6-2.7,1.6
	C96.7,11.4,96.3,13,96.3,14.6z M121.8,22.8c0.1-3.7,0.1-6.4,0.1-8c0-4.6-1.6-6.9-4.8-6.9c-2.6,0-4.3,1.4-5.1,4.4V8.2h-6v0.1l2.3,1.8
	c0.2,0.2,0.4,0.5,0.4,0.8v12c0,0.3-0.1,0.6-0.4,0.8l-2.4,1.4l0,0h8.8l0,0l-2.3-1.4c-0.3-0.1-0.4-0.4-0.4-0.7V12.5
	c0.9-1.7,2.1-2.6,3.6-2.6c1,0,1.9,0.5,2.3,1.4c0.6,1.5,0.8,3,0.7,4.6c0,0.4,0,1.2,0,2.3c0,1.1,0,2.2,0,3.1s0,1.5,0,1.5
	c0,0.3-0.2,0.6-0.4,0.7l-2.3,1.4l0,0h8.8l0,0l-2.3-1.4C121.9,23.5,121.7,23.1,121.8,22.8z M132.6,8.8V8.2h-4.9V2.6h-0.1l-2.9,5.1
	c-0.2,0.3-0.5,0.5-0.8,0.5H122v0.6h2.4v12.6c0,2.6,1.2,3.9,3.7,3.9c1.1,0.1,2.2-0.3,3-1.1c0.7-0.7,1.2-1.7,1.3-2.8h-0.1
	c-0.2,0.6-0.5,1.1-1,1.5c-0.5,0.4-1,0.6-1.6,0.6c-0.6,0-1.1-0.2-1.4-0.7c-0.4-0.5-0.6-1.2-0.5-1.8V8.8L132.6,8.8z M135.8,5.3V4.7
	h-3.2v0.5h1.3v3.5h0.7V5.3L135.8,5.3z M141.2,8.8V4.7h-1L139,7.8l-1.2-3.1h-1v4.1h0.7V5.4l0,0l1.3,3.4h0.4l1.3-3.4l0,0v3.4
	L141.2,8.8z"/>
</svg>
