<svg id="Lager_1" data-name="Lager 1" xmlns="http://www.w3.org/2000/svg" viewBox="0 0 50 50"><defs><style>.cls-1{fill:#fff;opacity:0;}.cls-2{fill:#f93333;}</style></defs><title>icon-emergency</title><rect class="cls-1" width="50" height="50"/><g id="Group_313" data-name="Group 313"><g id="Group_219" data-name="Group 219"><g id="Group_218" data-name="Group 218"><path id="Path_149" data-name="Path 149" class="cls-2" d="M26.35,49.61h-11V34.22H0v-11H15.39V7.88h11V23.26H41.73v11H26.35Zm-8-3h5V31.23H38.74v-5H23.35V10.87h-5V26.26H3v5H18.38Z"/></g></g><g id="Group_220" data-name="Group 220"><path id="Path_150" data-name="Path 150" class="cls-2" d="M40.41,19.55A9.59,9.59,0,0,1,38.5.57,14.29,14.29,0,0,1,40.36.39h.18a14.3,14.3,0,0,1,1.85.18,9.59,9.59,0,0,1-2,19Zm0-16.16-1.31.12a6.59,6.59,0,1,0,2.63,0Z"/></g><g id="Group_221" data-name="Group 221"><path id="Path_151" data-name="Path 151" class="cls-2" d="M40.35,12.82,37,9.1l2.22-2,1.22,1.38,2.19-2.19,2.1,2.13Z"/></g></g></svg>