<svg id="Lager_1" data-name="Lager 1" xmlns="http://www.w3.org/2000/svg" viewBox="0 0 50 50"><defs><style>.cls-1{fill:#fff;opacity:0;}.cls-2{fill:#f93333;}</style></defs><title>icon-appointment</title><rect class="cls-1" width="50" height="50"/><g id="Group_312" data-name="Group 312"><g id="Group_217" data-name="Group 217"><g id="Group_212" data-name="Group 212"><g id="Group_211" data-name="Group 211"><path id="Path_148" data-name="Path 148" class="cls-2" d="M31,50H13V43.92a20.74,20.74,0,0,1,6.11-14.74l0,0a2,2,0,0,0,0-2.89l0,0A20.74,20.74,0,0,1,13,11.5V5.39H37v6.08a20.74,20.74,0,0,1-6.11,14.74,2,2,0,0,0,0,2.9l0,0A20.74,20.74,0,0,1,37,43.89v4.46H33.67V43.89a17.42,17.42,0,0,0-5.15-12.43,5.41,5.41,0,0,1,0-7.6,17.49,17.49,0,0,0,5.15-12.42V8.66H16.33v2.81a17.39,17.39,0,0,0,5.15,12.42,5.41,5.41,0,0,1,0,7.6l0,0a17.35,17.35,0,0,0-5.12,12.39V46.7H31Z"/></g></g><g id="Group_214" data-name="Group 214"><g id="Group_213" data-name="Group 213"><path id="Path_195" data-name="Path 195" class="cls-2" d="M19.7,41.64H30.3v3.3H19.7Z"/></g></g><g id="Group_216" data-name="Group 216"><g id="Group_215" data-name="Group 215"><rect id="Rectangle_793" data-name="Rectangle 793" class="cls-2" x="13.22" width="23.56" height="3.3"/></g></g></g></g></svg>