<svg id="Lager_1" data-name="Lager 1" xmlns="http://www.w3.org/2000/svg" viewBox="0 0 18.96 25.66"><defs><style>.cls-1{fill:#fff;}</style></defs><title>icon-search-white</title><path id="Union_1" data-name="Union 1" class="cls-1" d="M17.07,25.66,11.23,15.55c-.19.09-.39.16-.58.23a8.25,8.25,0,0,1-3.12.39,8.09,8.09,0,0,1-4.32-1.62A8.51,8.51,0,0,1,2,13.47,8.3,8.3,0,0,1,.41,10.65,8.25,8.25,0,0,1,0,7.53,8.09,8.09,0,0,1,1.64,3.21,8.51,8.51,0,0,1,2.72,2,8.3,8.3,0,0,1,5.54.41,8.25,8.25,0,0,1,8.66,0a8.11,8.11,0,0,1,7.51,8.65A8.23,8.23,0,0,1,14.55,13a8.51,8.51,0,0,1-1.08,1.17l-.36.3L19,24.57Zm-13-22.1A5.91,5.91,0,0,0,2.64,5.43a6,6,0,0,0-.57,3.41A6.6,6.6,0,0,0,2.33,10a6.24,6.24,0,0,0,1.22,2.12,6.07,6.07,0,1,0,.51-8.58Z"/></svg>