<svg id="SvgjsSvg1001" width="288" height="288" xmlns="http://www.w3.org/2000/svg" version="1.1" xmlns:xlink="http://www.w3.org/1999/xlink" xmlns:svgjs="http://svgjs.com/svgjs"><defs id="SvgjsDefs1002"></defs><g id="SvgjsG1008" transform="matrix(0.9167,0,0,0.9167,11.9338746711731,11.955498212814348)"><svg xmlns="http://www.w3.org/2000/svg" enable-background="new 0 0 19 25.7" viewBox="0 0 19 25.7" width="288" height="288"><path fill="#333333" d="M18.3,25.5c-0.5,0.3-1.2,0.1-1.5-0.4l-5.3-9.3c-0.2,0.1-0.4,0.2-0.6,0.2c-1,0.3-2.1,0.5-3.1,0.4	c-1.6-0.1-3.1-0.7-4.4-1.6c-0.4-0.3-0.8-0.7-1.2-1.1c-0.7-0.8-1.3-1.8-1.6-2.8C0.1,9.8-0.1,8.8,0,7.6c0.1-1.5,0.7-3,1.6-4.4
	c0.4-0.4,0.7-0.8,1.1-1.2c0.8-0.7,1.8-1.3,2.8-1.6S7.7-0.1,8.8,0c4.6,0.3,7.9,4.3,7.6,8.7c-0.1,1.6-0.7,3.1-1.6,4.5
	c-0.3,0.4-0.7,0.8-1.1,1.2l-0.4,0.3l5.5,9.3C19,24.5,18.9,25.2,18.3,25.5L18.3,25.5z M4.2,3.7C3.6,4.2,3.1,4.8,2.7,5.5
	C2.2,6.6,2,7.8,2.2,9c0,0.4,0.1,0.8,0.2,1.2c0.3,0.8,0.7,1.5,1.2,2.1c2.5,2.9,7.3,2.7,9.7-0.5c1.4-1.9,1.5-4.5,0.3-6.6
	C11.6,1.7,7.1,1.1,4.2,3.7L4.2,3.7z" class="colorfa7864 svgShape"></path></svg></g></svg>