<svg id="Lager_1" data-name="Lager 1" xmlns="http://www.w3.org/2000/svg" viewBox="0 0 50 50"><defs><style>.cls-1{fill:#fff;opacity:0;}.cls-2{fill:#f93333;}</style></defs><title>icon-clinics</title><rect class="cls-1" width="50" height="50"/><g id="Group_222" data-name="Group 222"><g id="Group_222-2" data-name="Group 222-2"><path id="Path_152" data-name="Path 152" class="cls-2" d="M45.35,43.78l-6.94-6.93a4,4,0,0,0-2.82-1.17H19.35a7.43,7.43,0,0,1-5.91-3L2.25,17.82,5,15.76,16.16,30.67a4,4,0,0,0,3.16,1.58H35.59a7.19,7.19,0,0,1,5.22,2.16l6.94,6.94Z"/></g><g id="Group_223" data-name="Group 223"><path id="Path_167" data-name="Path 167" class="cls-2" d="M26.08,39.18h3.44v4.3H26.08Z"/></g><g id="Group_224" data-name="Group 224"><path id="Path_168" data-name="Path 168" class="cls-2" d="M20.69,39.18h3.43v4.3H20.69Z"/></g><g id="Group_225" data-name="Group 225"><path id="Path_169" data-name="Path 169" class="cls-2" d="M16.5,46.57H33.67V50H16.5Z"/></g><g id="Group_226" data-name="Group 226"><path id="Path_165" data-name="Path 165" class="cls-2" d="M30.34,5.18,37.19,0l2.07,2.74L32.41,7.92Z"/></g><g id="Group_227" data-name="Group 227"><rect id="Rectangle_798" data-name="Rectangle 798" class="cls-2" x="25.95" y="0.79" width="3.43" height="17.17" transform="translate(-0.06 18.58) rotate(-37.09)"/></g><g id="Group_228" data-name="Group 228"><path id="Path_166" data-name="Path 166" class="cls-2" d="M16.93,6.73l2.74-2.07L30,18.35l-2.73,2.07Z"/></g></g></svg>