<svg id="Lager_1" data-name="Lager 1" xmlns="http://www.w3.org/2000/svg" viewBox="0 0 50 50"><defs><style>.cls-1{fill:#f93333;}.cls-2{fill:#fff;}</style></defs><title>social-instagram</title><g id="Group_103" data-name="Group 103"><path id="_Bana_" data-name="&lt;Bana&gt;" class="cls-1" d="M50,25A25,25,0,1,1,25,0h0A25,25,0,0,1,50,25Z"/><path id="Path_23" data-name="Path 23" class="cls-2" d="M34.11,10.18H15.94a5.72,5.72,0,0,0-5.72,5.71V34.06a5.73,5.73,0,0,0,5.72,5.72H34.11a5.72,5.72,0,0,0,5.71-5.72V15.94A5.76,5.76,0,0,0,34.11,10.18Zm1.65,3.44h.66v5h-5v-5ZM20.76,22A5.28,5.28,0,0,1,25,19.78,5.22,5.22,0,0,1,29.24,22a2.53,2.53,0,0,1,.31.49A4.93,4.93,0,0,1,30.22,25a5.23,5.23,0,1,1-10.45,0,5.38,5.38,0,0,1,.67-2.54A3.17,3.17,0,0,0,20.76,22ZM36.92,34.11A2.87,2.87,0,0,1,34.07,37H15.94a2.87,2.87,0,0,1-2.85-2.85V22H17.5a4.92,4.92,0,0,0-.26.85A8.9,8.9,0,0,0,16.92,25a8.09,8.09,0,1,0,16.17,0,7,7,0,0,0-.32-2.18c-.08-.27-.17-.58-.26-.85h4.42v12.1Z"/></g></svg>