<svg id="Lager_1" data-name="Lager 1" xmlns="http://www.w3.org/2000/svg" viewBox="0 0 50 50"><defs><style>.cls-1{fill:#f93333;}.cls-2{fill:#fff;}</style></defs><title>social-linkedin</title><g id="Group_102" data-name="Group 102"><path id="_Bana_" data-name="&lt;Bana&gt;" class="cls-1" d="M50,25A25,25,0,1,1,25,0h0A25,25,0,0,1,50,25Z"/><g id="Group_102-2" data-name="Group 102-2"><path id="_Bana_2" data-name="&lt;Bana&gt;" class="cls-2" d="M10.85,24.06V38.57h6.92V18.79H10.85Z"/><path id="_Bana_3" data-name="&lt;Bana&gt;" class="cls-2" d="M14.29,8.93a3.44,3.44,0,1,0,3.43,3.44h0A3.44,3.44,0,0,0,14.29,8.93Z"/><path id="_Bana_4" data-name="&lt;Bana&gt;" class="cls-2" d="M40.31,24.86c-.44-3.7-2.18-6.07-7.23-6.07-3,0-5,1.12-5.8,2.68h-.09V18.79H21.7V38.53h5.76V28.75c0-2.59.49-5.09,3.66-5.09s3.39,2.95,3.39,5.27v9.64h5.94V27.68h0C40.45,26.7,40.4,25.76,40.31,24.86Z"/></g></g></svg>